<svg id="layer_1" data-name="layer 1" xmlns="http://www.w3.org/2000/svg" xmlns:xlink="http://www.w3.org/1999/xlink"
    viewBox="0 0 100 100" width="100" height="100">
    <defs>
        <style>
            .cls-1 {
                fill: url(#gradient);
            }

            .cls-2 {
                fill: #8dcefc;
            }

            .cls-3,
            .cls-4 {
                fill: none;
                stroke-miterlimit: 10;
                stroke-width: 2px;
            }

            .cls-3 {
                stroke: #457ab5;
            }

            .cls-4 {
                stroke: url(#gradient_3);
            }

            .cls-5 {
                fill: url(#gradient_2);
            }

            .cls-6 {
                fill: #2e7acc;
            }

            .cls-7 {
                fill: #e33e06;
            }

            .cls-8 {
                fill: #8c8c8c;
            }
        </style>
        <radialGradient id="gradient" cx="49.22" cy="-6550.95" r="44.62"
            gradientTransform="matrix(1, 0, 0, -0.07, 0, -359.49)" gradientUnits="userSpaceOnUse">
            <stop offset="0" stop-color="#8c8c8c" />
            <stop offset="0.13" stop-color="#919191" stop-opacity="0.95" />
            <stop offset="0.32" stop-color="#a0a0a0" stop-opacity="0.83" />
            <stop offset="0.54" stop-color="#b8b8b8" stop-opacity="0.61" />
            <stop offset="0.78" stop-color="#dadada" stop-opacity="0.32" />
            <stop offset="1" stop-color="#fff" stop-opacity="0" />
        </radialGradient>
        <radialGradient id="gradient_3" cx="-147.55" cy="-262.27" r="23.26"
            gradientTransform="matrix(0.95, -0.32, -0.32, -0.95, 121.5, -275.63)" gradientUnits="userSpaceOnUse">
            <stop offset="0" stop-color="#fff" />
            <stop offset="0.21" stop-color="#fff" stop-opacity="0.99" />
            <stop offset="0.34" stop-color="#fff" stop-opacity="0.96" />
            <stop offset="0.46" stop-color="#fff" stop-opacity="0.9" />
            <stop offset="0.56" stop-color="#fff" stop-opacity="0.81" />
            <stop offset="0.66" stop-color="#fff" stop-opacity="0.71" />
            <stop offset="0.74" stop-color="#fff" stop-opacity="0.58" />
            <stop offset="0.83" stop-color="#fff" stop-opacity="0.42" />
            <stop offset="0.91" stop-color="#fff" stop-opacity="0.24" />
            <stop offset="0.99" stop-color="#fff" stop-opacity="0.04" />
            <stop offset="1" stop-color="#fff" stop-opacity="0" />
        </radialGradient>
        <radialGradient id="gradient_2" cx="61.19" cy="57.93" r="54.56" gradientUnits="userSpaceOnUse">
            <stop offset="0" stop-color="#7aacdf" />
            <stop offset="0.27" stop-color="#70a6dd" />
            <stop offset="0.73" stop-color="#5496d9" />
            <stop offset="1" stop-color="#408bd6" />
        </radialGradient>
    </defs>
    <title>博客园logo</title>
    <g id="layer_2" data-name="layer 2">
        <g id="layer_1-2" data-name="layer 1-2">
            <ellipse class="cls-1" cx="49.22" cy="99.44" rx="44.62" ry="3.22" />
            <path class="cls-2"
                d="M49.22,1A48.22,48.22,0,1,0,97.44,49.22,48.22,48.22,0,0,0,49.22,1ZM34,77.06A10.46,10.46,0,1,1,44.43,66.6,10.46,10.46,0,0,1,34,77.06Zm25.11-4a6.5,6.5,0,0,1-6.5-6.5c0-9.81-8.51-18.1-18.58-18.1a6.5,6.5,0,0,1,0-13c17.12,0,31.58,14.24,31.58,31.1A6.5,6.5,0,0,1,59.08,73.1ZM79.72,67l-.56,0a6.5,6.5,0,0,1-6.47-6C71.35,45.29,59.57,28.5,40.4,28.5a6.5,6.5,0,0,1,0-13C64,15.5,83.48,34.63,85.65,60A6.51,6.51,0,0,1,79.72,67Z" />
            <circle class="cls-3" cx="49.22" cy="49.22" r="48.22" />
            <path class="cls-4" d="M35.2,5.89c23.88-7.78,50,5.36,57.41,29.05" />
            <path class="cls-5"
                d="M49.22,4.6A44.62,44.62,0,1,0,93.84,49.22,44.62,44.62,0,0,0,49.22,4.6ZM34,77.06A10.46,10.46,0,1,1,44.43,66.6,10.46,10.46,0,0,1,34,77.06Zm25.11-4a6.5,6.5,0,0,1-6.5-6.5c0-9.81-8.51-18.1-18.58-18.1a6.5,6.5,0,0,1,0-13c17.12,0,31.58,14.24,31.58,31.1A6.5,6.5,0,0,1,59.08,73.1ZM79.72,67l-.56,0a6.5,6.5,0,0,1-6.47-6C71.35,45.29,59.57,28.5,40.4,28.5a6.5,6.5,0,0,1,0-13C64,15.5,83.48,34.63,85.65,60A6.51,6.51,0,0,1,79.72,67Z" />
            <path class="cls-6"
                d="M79.72,67l-.56,0a6.5,6.5,0,0,1-6.47-6,39.24,39.24,0,0,0-4.45-15,56.64,56.64,0,0,0-37-13.58A57,57,0,0,0,5.93,38.39,44.61,44.61,0,0,0,85.62,75a51.4,51.4,0,0,0-2.86-9A6.55,6.55,0,0,1,79.72,67ZM34,77.06A10.46,10.46,0,1,1,44.43,66.6,10.46,10.46,0,0,1,34,77.06Zm25.11-4a6.5,6.5,0,0,1-6.5-6.5c0-9.81-8.51-18.1-18.58-18.1a6.5,6.5,0,0,1,0-13c17.12,0,31.58,14.24,31.58,31.1A6.5,6.5,0,0,1,59.08,73.1Z" />
        </g>
    </g>
</svg>