<svg xmlns="http://www.w3.org/2000/svg" version="1.1" id="图层_1" x="0" y="0" viewBox="0 0 134.5 134.5"
    style="enable-background:new 0 0 134.5 134.5" xml:space="preserve">
    <style>
        .st0 {
            fill: #fff
        }

        .st2 {
            fill: #0c6066
        }

        .st3 {
            fill: #1e1e1e
        }
    </style>
    <path
        d="M121.9 72.5c.8 1.1 1.2 2.4 1.1 3.7-1.1 26.8-23.2 48.2-50.3 48.2-27.1 0-49.2-21.4-50.3-48.2-.1-1.3.3-2.6 1.1-3.7l45-59.7c2.3-3 6.8-3 9.1 0l44.3 59.7z"
        style="fill:#00f9e5" />
    <path class="st0"
        d="M56.6 92.3c-10.2 9.2-25.8 8.4-35-1.7-9.2-10.2-8.4-25.8 1.7-35 10.2-9.2 25.8-8.4 35 1.7s8.5 25.8-1.7 35z" />
    <path class="st2"
        d="M40 101c-7.4 0-14.8-3-20.1-8.9-10-11.1-9.2-28.3 1.9-38.3 5.4-4.9 12.3-7.4 19.5-7 7.2.4 13.9 3.5 18.8 8.9 10 11.1 9.2 28.3-1.9 38.3-5.2 4.7-11.7 7-18.2 7zm-.1-49.6c-5.6 0-10.9 2-15.1 5.8-9.2 8.3-9.9 22.6-1.6 31.8 4 4.5 9.6 7.1 15.6 7.4 6 .3 11.8-1.8 16.2-5.8 9.2-8.3 9.9-22.6 1.6-31.8-4-4.5-9.6-7.1-15.6-7.4h-1.1z" />
    <path class="st3" d="M31 64c-5.4 4.9-5.8 13.2-.9 18.5 4.9 5.4 13.2 5.8 18.5.9 1.8-1.6 3-3.6 3.7-5.7L31 64z" />
    <path class="st2"
        d="m39.1 48.4 27.4-37.7c1.5-2 3.8-3.2 6.3-3.2s4.8 1.2 6.3 3.2l27 37.8-5.4.4-25.1-35.4c-.6-.8-1.6-1.3-2.7-1.3s-2 .5-2.6 1.3L44 49.5l-4.9-1.1zm-8.6 48.7c2.3 4.4 5.4 8.4 9.1 12 8.9 8.5 20.6 13.3 32.9 13.3 12.3 0 24-4.7 32.9-13.3 4-3.8 7.2-8.2 9.6-13l6.5-3.5c-2.7 7.4-7.1 14.2-12.9 19.8C98.8 121.8 86 127 72.5 127a52.1 52.1 0 0 1-36.1-14.5c-5.7-5.5-10-12-12.7-19.2l6.8 3.8z" />
    <linearGradient id="SVGID_1_" gradientUnits="userSpaceOnUse" x1="-884.44" y1="-1010.656" x2="-883.44" y2="-1010.656"
        gradientTransform="scale(47.9582 -47.9582) rotate(-45 776.85 -1574.223)">
        <stop offset="0" style="stop-color:#00f9e5" />
        <stop offset=".568" style="stop-color:#299df4" />
        <stop offset="1" style="stop-color:#4a54ff" />
    </linearGradient>
    <path
        d="M62.7 83.9c3.9-9 2.3-19.9-5.1-27.4-9.2-9.3-24.3-9.8-34.1-1.2-.7.7-1.4 1.3-2.1 2.1-.2.2-.1.5.1.6L62 84.1c.2.1.6 0 .7-.2z"
        style="fill:url(#SVGID_1_)" />
    <path class="st2"
        d="m62.7 83.9 2.1.9c1.5-3.5 2.3-7.2 2.3-10.9 0-6.9-2.6-13.8-7.8-19.1-5.3-5.3-12.3-8-19.3-8-6.4 0-12.9 2.2-18 6.8-.8.7-1.6 1.5-2.3 2.2-.5.6-.7 1.2-.7 1.9 0 .9.4 1.8 1.3 2.3l40.4 26c.5.3 1 .4 1.5.4s1-.1 1.5-.4c.4-.3.8-.7 1.1-1.2l-2.1-.9-2.1-.9 1.7.8-1-1.6c-.3.2-.6.5-.7.8l1.7.8-1-1.6 1 1.6v-1.9c-.4 0-.7.1-1 .3l1 1.6v-1.9 1.9l1-1.6c-.3-.2-.7-.3-1-.3v1.9l1-1.6-40.5-26.1-1 1.6h1.9c0-.6-.3-1.2-.9-1.6l-1 1.6h1.9-1.9l1.4 1.3c.3-.4.5-.8.5-1.3h-1.9l1.4 1.3c.6-.6 1.2-1.3 1.9-1.9 4.2-3.7 9.5-5.6 14.9-5.6 5.8 0 11.7 2.2 16 6.6 4.4 4.4 6.5 10.1 6.5 15.8 0 3.1-.6 6.2-1.9 9l2.1 1z" />
    <path class="st0"
        d="M88.6 92.3c10.2 9.2 25.8 8.4 35-1.7 9.2-10.2 8.4-25.8-1.7-35-10.2-9.2-25.8-8.4-35 1.7s-8.5 25.8 1.7 35z" />
    <path class="st2"
        d="M87 94c-11.1-10-11.9-27.2-1.9-38.3 4.9-5.4 11.5-8.5 18.8-8.9 7.2-.4 14.2 2.1 19.5 7 11.1 10 11.9 27.2 1.9 38.3-5.3 5.9-12.7 8.9-20.1 8.9-6.5 0-13-2.3-18.2-7zm17.1-42.6c-6 .3-11.5 2.9-15.6 7.4-8.3 9.2-7.6 23.5 1.6 31.8 4.5 4 10.2 6.1 16.2 5.8 6-.3 11.5-2.9 15.6-7.4 8.3-9.2 7.6-23.5-1.6-31.8-4.2-3.8-9.5-5.8-15.1-5.8h-1.1z" />
    <path class="st3"
        d="M114.2 63.9c5.4 4.9 5.8 13.2.9 18.5-4.9 5.4-13.2 5.8-18.5.9-1.8-1.6-3-3.6-3.7-5.7l21.3-13.7z" />
    <linearGradient id="SVGID_2_" gradientUnits="userSpaceOnUse" x1="-969.352" y1="-1095.568" x2="-968.352"
        y2="-1095.568" gradientTransform="rotate(135 -34078.736 -16594.771) scale(47.9582)">
        <stop offset="0" style="stop-color:#00f9e5" />
        <stop offset=".568" style="stop-color:#299df4" />
        <stop offset="1" style="stop-color:#4a54ff" />
    </linearGradient>
    <path
        d="M82.5 83.8c-3.9-9-2.3-19.9 5.1-27.4 9.2-9.3 24.3-9.8 34.1-1.2.7.7 1.4 1.3 2.1 2.1.2.2.1.5-.1.6L83.2 84c-.3.2-.6.1-.7-.2z"
        style="fill:url(#SVGID_2_)" />
    <path class="st2"
        d="m82.5 83.8 2.1-.9c-1.3-2.9-1.9-5.9-1.9-9 0-5.7 2.1-11.4 6.5-15.8 4.3-4.4 10.2-6.6 16-6.6 5.3 0 10.6 1.9 14.9 5.6.7.6 1.3 1.2 1.9 1.9l1.4-1.3h-1.9c0 .4.2.9.5 1.3l1.4-1.3h-1.9 1.9l-1-1.6c-.5.4-.9 1-.9 1.6h1.9l-1-1.6-40.5 26 1 1.6v-1.9c-.3 0-.7.1-1 .3l1 1.6v-1.9 1.9l1-1.6c-.3-.2-.6-.3-1-.3v1.9l1-1.6-1 1.6 1.7-.8c-.2-.4-.4-.7-.7-.8l-1 1.6 1.7-.8-2.1.9-2.1.9c.2.5.6 1 1.1 1.2.4.3 1 .4 1.5.4s1-.1 1.5-.4L125 59.8c.8-.5 1.2-1.4 1.2-2.3 0-.6-.2-1.3-.7-1.8-.7-.8-1.5-1.5-2.3-2.2-5.1-4.5-11.6-6.8-18-6.8-7 0-14.1 2.7-19.3 8-5.2 5.3-7.8 12.2-7.8 19.1 0 3.7.8 7.4 2.3 10.9l2.1-.9z" />
</svg>