<svg t="1680186348584" class="icon" viewBox="0 0 1024 1024" version="1.1"
    xmlns="http://www.w3.org/2000/svg" p-id="24442" width="200" height="200">
    <path
        d="M133.973333 819.2V204.8a2.133333 2.133333 0 0 1 2.133334-2.133333h751.786666a2.133333 2.133333 0 0 1 2.133334 2.133333v339.626667c0 1.066667 0 1.706667 1.92 1.92a209.066667 209.066667 0 0 1 64 31.36 2.133333 2.133333 0 0 0 3.2-1.706667V204.8a70.826667 70.826667 0 0 0-70.826667-70.826667H136.106667A70.826667 70.826667 0 0 0 65.28 204.8v614.4a70.826667 70.826667 0 0 0 70.826667 70.826667h499.2a5.546667 5.546667 0 0 0 4.693333-8.746667 228.693333 228.693333 0 0 1-26.88-55.253333 7.253333 7.253333 0 0 0-6.613333-4.693334h-469.333334a2.133333 2.133333 0 0 1-3.2-2.133333z"
        fill="#444444" p-id="24443"></path>
    <path
        d="M254.293333 374.613333a51.626667 51.626667 0 1 0 103.04 0 51.626667 51.626667 0 1 0-103.04 0z"
        fill="#444444" p-id="24444"></path>
    <path
        d="M267.52 751.573333l-60.8-60.586666 210.986667-210.986667a34.346667 34.346667 0 0 1 48.64 0L576 590.08l180.266667-180.266667 60.8 60.8-216.533334 216.533334a34.346667 34.346667 0 0 1-48.64 0l-110.08-110.08z"
        fill="#00D8A0" p-id="24445"></path>
    <path
        d="M821.333333 926.72a170.666667 170.666667 0 1 1 170.666667-170.666667 170.666667 170.666667 0 0 1-170.666667 170.666667z m0-273.92a102.826667 102.826667 0 1 0 102.826667 102.826667 103.04 103.04 0 0 0-102.826667-102.826667zM721.493333 849.706667l189.653334-197.546667"
        fill="#444444" p-id="24446"></path>
    <path d="M696.874667 826.026667l189.568-197.418667 49.237333 47.296-189.568 197.418667z"
        fill="#444444" p-id="24447"></path>
</svg>