<svg t="1680184447525" class="icon" viewBox="0 0 1024 1024" version="1.1"
    xmlns="http://www.w3.org/2000/svg" p-id="11604" xmlns:xlink="http://www.w3.org/1999/xlink"
    width="200" height="200">
    <path
        d="M638.214 323.19c-12.758-3.062-20.242-16.5-18.54-33.51 2.04-19.902 19.56-30.108 41.163-24.154 14.969 4.252 21.773 18.88 17.86 38.102-3.401 16.84-19.56 24.494-40.483 19.561z"
        fill="#ECCB47" p-id="11605"></path>
    <path
        d="M472.027 1012.093c-1.872-0.85-8.505-1.53-14.8-1.53-6.123-0.171-14.968-0.851-19.56-1.872-4.423-0.85-16.5-3.232-26.876-5.103-25.515-4.933-67.87-17.35-85.56-25.005-122.472-53.41-205.821-130.466-261.614-242.051-8.845-17.69-15.99-32.66-15.99-33.51 0-0.68-2.38-6.974-5.102-13.948-5.443-13.268-17.01-52.22-20.072-68.21-1.02-5.103-2.381-11.567-2.892-14.459-5.953-29.087-7.994-52.9-8.164-91.854 0-32.659 1.87-60.895 5.443-80.797 1.02-5.103 2.381-13.948 3.402-19.561 2.211-14.119 8.845-38.783 17.01-62.087 18.88-54.942 46.777-105.972 81.648-149.687 16.84-21.093 59.705-63.958 80.117-80.117C266.547 68.72 344.622 34.02 428.65 20.242c45.927-7.485 118.05-7.485 162.445 0 21.433 3.572 55.453 11.397 71.442 16.5 126.554 40.653 234.568 133.017 294.953 252.427 23.644 46.608 40.824 102.57 47.628 153.94 1.02 7.485 2.551 19.732 3.572 27.217 2.211 17.01 2.211 71.952 0.17 87.26-1.02 6.294-2.551 17.861-3.572 25.856-11.567 88.792-53.581 183.027-113.286 253.448-16.5 19.732-56.814 58.515-71.102 68.89-6.464 4.764-15.65 11.738-20.582 15.65-12.758 10.036-45.757 29.597-69.74 41.334-54.773 26.536-107.164 41.504-168.4 47.968-22.283 2.382-85.73 3.402-90.152 1.361zM806.953 785.86c11.907-4.592 20.242-13.608 23.814-26.025 2.381-8.335 2.721-31.128 2.721-211.944 0-179.285-0.34-202.419-2.551-201.568s-2.552-3.062-2.552-29.257c0-38.103-3.232-51.37-15.138-64.128-10.547-11.396 14.968-10.546-297.845-11.056-202.929-0.34-285.087 0-290.02 1.36-18.37 5.104-28.747 19.222-31.468 42.866-2.212 18.71-2.212 51.88 0 53.24 2.721 1.702 1.87 5.444-1.361 6.295-2.211 0.68-3.572 3.061-4.253 7.484-0.68 3.742-1.19 92.024-1.19 196.295 0 218.918-0.17 215.686 13.267 228.444 2.722 2.551 8.675 6.123 13.268 7.994 8.165 3.232 16.67 3.232 296.144 3.402 285.767 0 287.978 0 297.164-3.402z"
        fill="#90C751" p-id="11606"></path>
    <path
        d="M762.897 322.68c-11.056-5.274-16.16-14.63-16.16-29.428 0-14.459 6.464-23.814 19.392-27.897 8.335-2.721 21.603-1.19 28.747 3.232 8.505 5.273 11.396 11.737 11.396 25.175 0 13.948-3.572 21.943-11.566 26.536-7.315 4.252-24.835 5.443-31.809 2.381z"
        fill="#DA575D" p-id="11607"></path>
    <path
        d="M701.491 323.7c-2.041-0.34-6.634-3.232-10.206-6.294-6.294-5.443-6.294-5.613-7.144-20.242-0.68-12.757-0.34-15.309 2.892-20.412 4.932-8.165 12.757-11.397 27.045-11.397 21.093 0 29.938 10.036 28.747 31.98-0.68 11.396-1.19 12.927-6.464 18.37-7.824 7.995-20.241 10.886-34.87 7.995z"
        fill="#21A6AF" p-id="11608"></path>
    <path
        d="M446.512 688.904c-0.34-0.51 18.54-53.412 42.014-117.37 23.304-64.127 43.035-118.388 43.716-120.77 1.19-4.082 2.041-4.252 15.479-4.763 18.03-0.68 19.221-0.17 16.84 5.954-1.02 2.551-20.582 55.963-43.376 118.73s-42.014 115.157-42.865 116.518c-1.19 2.04-4.933 2.551-16.5 2.551-8.164 0-14.968-0.34-15.308-0.85z m-96.957-81.818c-39.293-21.603-73.143-40.314-75.354-41.675-2.552-1.7-3.743-4.082-3.743-7.994 0-5.444 0.68-5.954 22.454-17.69 12.417-6.635 46.607-25.176 76.034-41.165 29.427-15.82 53.922-28.577 54.602-28.236 1.361 0.85 0.85 33.85-0.68 36.23-0.51 0.851-20.922 12.588-45.247 26.026s-44.226 25.345-44.226 26.366 2.892 3.231 6.464 4.762c3.402 1.531 23.984 12.588 45.417 24.665 36.231 20.072 39.123 21.943 38.953 26.195 0 2.552-0.17 10.716-0.34 18.2s-0.851 13.609-1.532 13.609c-0.85 0-33.51-17.69-72.802-39.293z m247.495 20.922v-18.37l45.927-25.346c25.345-13.948 45.246-26.025 44.566-26.705s-21.263-12.247-45.417-25.685L597.9 507.577l-0.51-19.22c-0.17-10.887 0.17-18.882 1.02-18.542 0.851 0.17 35.381 18.881 76.716 41.164 47.117 25.515 75.354 41.845 76.034 43.886 0.51 1.701 0.51 4.423 0 6.124-0.51 1.53-13.778 9.865-29.597 18.54-15.65 8.676-49.33 27.217-75.014 41.165-25.685 14.118-47.288 25.685-47.968 25.685-0.85 0-1.531-8.335-1.531-18.371z m-88.452-282.706l-320.638-0.85-0.51-23.814c-0.68-32.66 1.7-51.37 7.654-62.427 5.273-9.865 14.459-17.01 25.175-20.071 4.933-1.361 88.452-1.701 295.123-1.361 265.015 0.51 288.66 0.68 293.422 3.402 11.056 6.123 19.391 18.88 22.793 35.38 2.552 11.397 1.871 70.252-0.68 70.422-0.85 0.17-145.946-0.17-322.339-0.68z m153.09-29.767c2.381-1.19 5.613-3.572 7.144-5.443 3.232-3.572 5.953-14.629 5.103-21.263-0.85-6.804-10.206-15.99-18.711-18.2-17.35-4.763-34.02 12.587-29.257 30.107 4.082 15.48 20.752 22.283 35.72 14.799z m57.834 2.551c14.458-4.082 22.453-21.262 15.819-34.02-8.845-17.01-33.34-18.2-43.205-2.21-3.062 4.932-3.573 7.484-2.722 15.478 0.85 8.505 1.7 10.376 7.144 15.14 5.613 4.762 8.675 6.123 15.31 7.143 1.02 0 4.422-0.68 7.654-1.53z m70.591-3.232c10.206-5.783 14.288-23.133 7.825-32.999-9.526-14.628-28.237-16.16-39.293-3.402-8.676 9.866-8.846 21.263-0.51 31.298 8.674 10.206 20.071 12.078 31.978 5.103z"
        fill="#2F4C5A" p-id="11609"></path>
</svg>